<mxfile host="app.diagrams.net" modified="2024-07-22T03:04:30.930Z" agent="Mozilla/5.0 (Windows NT 10.0; Win64; x64) AppleWebKit/537.36 (KHTML, like Gecko) Chrome/126.0.0.0 Safari/537.36" version="24.7.1" etag="jK1gFu1bDmf2ApWTG_KE" type="github">
  <diagram name="第 1 页" id="DwnSwKyyAI6K6VapRLUF">
    <mxGraphModel>
      <root>
        <mxCell id="0" />
        <mxCell id="1" parent="0" />
      </root>
    </mxGraphModel>
  </diagram>
</mxfile>
